<?xml version="1.0" standalone="no"?>
<!DOCTYPE svg PUBLIC "-//W3C//DTD SVG 20010904//EN"
 "http://www.w3.org/TR/2001/REC-SVG-20010904/DTD/svg10.dtd">
<svg version="1.0" xmlns="http://www.w3.org/2000/svg"
 width="700.000000pt" height="700.000000pt" viewBox="0 0 700.000000 700.000000"
 preserveAspectRatio="xMidYMid meet">
<metadata>
Created by potrace 1.14, written by Peter Selinger 2001-2017
</metadata>
<g transform="translate(0.000000,700.000000) scale(0.100000,-0.100000)"
fill="#000000" stroke="none">
<path d="M3280 6997 c-3 -3 -23 -7 -45 -10 -22 -3 -67 -10 -100 -16 -33 -5
-78 -13 -100 -16 -23 -3 -52 -7 -65 -10 -14 -3 -95 -16 -180 -30 -173 -29
-268 -57 -510 -152 -274 -108 -532 -241 -750 -386 -69 -46 -258 -184 -270
-197 -3 -3 -50 -44 -105 -92 -429 -370 -758 -876 -955 -1467 -81 -243 -120
-407 -189 -806 -11 -62 -9 -570 3 -635 3 -19 8 -57 11 -85 3 -27 15 -97 25
-155 11 -58 22 -120 25 -138 25 -149 125 -477 205 -672 307 -749 920 -1399
1665 -1765 222 -109 451 -194 670 -248 155 -39 159 -40 180 -44 11 -2 43 -7
70 -13 107 -21 225 -40 300 -48 78 -9 568 -9 665 0 279 26 674 129 960 250
101 43 345 165 445 223 33 19 74 42 90 51 42 23 293 193 308 208 6 7 19 17 28
22 42 23 217 175 324 280 113 111 201 210 338 384 31 39 120 175 174 265 215
358 383 825 457 1275 38 228 45 322 42 575 -2 143 -6 269 -8 280 -3 11 -9 52
-13 90 -7 68 -9 83 -20 135 -3 14 -8 43 -11 65 -5 33 -46 232 -59 285 -84 338
-303 786 -559 1145 -63 89 -70 98 -141 184 -214 265 -461 491 -725 668 -273
182 -588 331 -915 432 -134 42 -336 93 -415 106 -57 9 -78 13 -113 21 -16 3
-38 7 -50 9 -46 5 -123 18 -142 23 -27 6 -539 15 -545 9z"/>
</g>
</svg>
